# AST/ASF file generated using VICON BodyLanguage
# -----------------------------------------------
:version 1.10
:name VICON
:units
  mass 1.0
  length 0.45
  angle deg
:documentation
   .ast/.asf automatically generated from VICON data using
   VICON BodyBuilder and BodyLanguage model FoxedUp or BRILLIANT.MOD
:root
   order TX TY TZ RX RY RZ
   axis XYZ
   position 0 0 0  
   orientation 0 0 0 
:bonedata
  begin
     id 1 
     name lhipjoint
     direction 0.650112 -0.723553 0.232005 
     length 2.45805 
     axis 0 0 0  XYZ
  end
  begin
     id 2 
     name lfemur
     direction 0.34202 -0.939693 0  
     length 7.00073  
     axis 0 0 20  XYZ
    dof rx ry rz
    limits (-160.0 20.0)
           (-70.0 70.0)
           (-60.0 70.0)
  end
  begin
     id 3 
     name ltibia
     direction 0.34202 -0.939693 0   
     length 7.8748   
     axis 0 0 20   XYZ
    dof rx
    limits (-10.0 170.0)
  end
  begin
     id 4 
     name lfoot
     direction 0.0542825 -0.14914 0.987325   
     length 1.75978   
     axis -90 7.62852e-016 20   XYZ
    dof rx rz
    limits (-45.0 90.0)
           (-70.0 20.0)
  end
  begin
     id 5 
     name ltoes
     direction 1.53509e-011 -4.21906e-011 1   
     length 0.893912   
     axis -90 7.62852e-016 20   XYZ
    dof rx
    limits (-90.0 20.0)
  end
  begin
     id 6 
     name rhipjoint
     direction -0.637897 -0.733345 0.235145   
     length 2.42522  
     axis 0 0 0  XYZ 
  end
  begin
     id 7 
     name rfemur
     direction -0.34202 -0.939693 0   
     length 7.02549   
     axis 0 0 -20   XYZ
    dof rx ry rz
    limits (-160.0 20.0)
           (-70.0 70.0)
           (-70.0 60.0)
  end
  begin
     id 8 
     name rtibia
     direction -0.34202 -0.939693 0   
     length 7.71512   
     axis 0 0 -20   XYZ
    dof rx
    limits (-10.0 170.0)
 end
 begin
     id 9 
     name rfoot
     direction -0.0822618 -0.226012 0.970645   
     length 1.90014  
     axis -90 -7.62852e-016 -20   XYZ
    dof rx rz
    limits (-45.0 90.0)
           (-20.0 70.0)
  end
  begin
     id 10 
     name rtoes
     direction -1.53542e-011 -4.21872e-011 1   
     length 0.957341   
     axis -90 -7.62852e-016 -20   XYZ
    dof rx
    limits (-90.0 20.0)
  end
  begin
     id 11 
     name lowerback
     direction -0.0022947 0.999774 -0.0211557   
     length 1.89909   
     axis 0 0 0   XYZ
    dof rx ry rz
    limits (-20.0 45.0)
           (-30.0 30.0)
           (-30.0 30.0)
  end
  begin
     id 12 
     name upperback
     direction 0.0107737 0.998635 0.0511027   
     length 1.8853   
     axis 0 0 0   XYZ
    dof rx ry rz
    limits (-20.0 45.0)
           (-30.0 30.0)
           (-30.0 30.0)
  end
  begin
     id 13 
     name thorax
     direction 0.011824 0.998136 0.0598754   
     length 1.88911   
     axis 0 0 0   XYZ
    dof rx ry rz
    limits (-20.0 45.0)
           (-30.0 30.0)
           (-30.0 30.0)
  end
  begin
     id 14 
     name lowerneck
     direction -0.0685355 0.990319 0.120714   
     length 1.91222   
     axis 0 0 0   XYZ
    dof rx ry rz
    limits (-20.0 45.0)
           (-30.0 30.0)
           (-30.0 30.0)
  end
  begin
     id 15 
     name upperneck
     direction 0.0886204 0.955665 -0.280805   
     length 1.92526   
     axis 0 0 0   XYZ
    dof rx ry rz
    limits (-20.0 45.0)
           (-30.0 30.0)
           (-30.0 30.0)
  end
  begin
     id 16
     name head
     direction 0.0233423 0.993502 -0.111393  
     length 1.96056  
     axis 0 0 0   XYZ
    dof rx ry rz
    limits (-20.0 45.0)
           (-30.0 30.0)
           (-30.0 30.0)
  end
  begin
     id 17 
     name lclavicle
     direction 0.941873 0.32922 0.0670041  
     length 3.31705  
     axis 0 0 0   XYZ
    dof ry rz
    limits (-20.0 10.0)
           (0.0 20.0)
  end
  begin
     id 18 
     name lhumerus
     direction 1 -4.4898e-011 3.38707e-028   
     length 5.29277   
     axis 180 -30 -90   XYZ
    dof rx ry rz
    limits (-60.0 90.0)
           (-90.0 90.0)
           (-90.0 90.0)
  end
  begin
     id 19
     name lradius
     direction 1 -4.48952e-011 1.63213e-028   
     length 2.85226   
     axis 180 -30 -90   XYZ
    dof rx
    limits (-10.0 170.0)
  end
  begin
     id 20
     name lwrist
     direction 1 -4.49001e-011 1.27856e-027   
     length 1.42613   
     axis -1.61767e-015 90 90   XYZ
    dof ry
    limits (-180.0 0.0)
 end
  begin
     id 21 
     name lhand
     direction 1 -4.48976e-011 2.55931e-027   
     length 0.602097   
     axis -1.63363e-015 90 90   XYZ
    dof rx rz
    limits (-90.0 90.0)
           (-45.0 45.0)
  end
  begin
     id 22 
     name lfingers
     direction 1 -4.48986e-011 5.11684e-027   
     length 0.485426   
     axis -3.26723e-015 90 90   XYZ
    dof rx
    limits (0.0 90.0)
  end
  begin
     id 23
     name lthumb
     direction 0.707107 -6.34915e-011 0.707107   
     length 0.696978   
     axis -90 45 -2.25915e-014   XYZ
    dof rx rz
    limits (-45.0 45.0)
           (-45.0 45.0)
  end
  begin
     id 24 
     name rclavicle
     direction -0.939974 0.327078 0.0973096   
     length 3.10337  
     axis 0 0 0   XYZ 
    dof ry rz
    limits (-10.0 20.0)
           (-20.0 0.0)
  end
  begin
     id 25 
     name rhumerus
     direction -1 -4.48975e-011 1.83745e-027  
     length 5.13304   
     axis 180 30 90   XYZ
    dof rx ry rz
    limits (-90.0 60.0)
           (-90.0 90.0)
           (-90.0 90.0)
  end
  begin
     id 26 
     name rradius
     direction -1 -4.48977e-011 7.1775e-029   
     length 2.74305   
     axis 180 30 90   XYZ
    dof rx
    limits (-10.0 170.0)
  end
  begin
     id 27 
     name rwrist
     direction -1 -4.48977e-011 1.27963e-027   
     length 1.37152   
     axis -1.61767e-015 -90 -90   XYZ
    dof ry
    limits (-180.0 0.0)
  end
  begin
     id 28
     name rhand
     direction -1 -4.4888e-011 2.56782e-027   
     length 0.767976   
     axis -1.63363e-015 -90 -90   XYZ
    dof rx rz
    limits (-90.0 90.0)
           (-45.0 45.0)
  end
  begin
     id 29
     name rfingers
     direction -1 -4.48947e-011 5.12384e-027   
     length 0.619162   
     axis -3.26723e-015 -90 -90   XYZ
    dof rx
    limits (0.0 90.0)
  end
  begin
     id 30
     name rthumb
     direction -0.707107 -6.34857e-011 0.707107   
     length 0.888997   
     axis -90 -45 2.25915e-014   XYZ
    dof rx rz
    limits (-45.0 45.0)
           (-45.0 45.0)
  end
:hierarchy
  begin
    root lhipjoint rhipjoint lowerback
    lhipjoint lfemur
    lfemur ltibia
    ltibia lfoot
    lfoot ltoes
    rhipjoint rfemur
    rfemur rtibia
    rtibia rfoot
    rfoot rtoes
    lowerback upperback
    upperback thorax
    thorax lowerneck lclavicle rclavicle
    lowerneck upperneck
    upperneck head
    lclavicle lhumerus
    lhumerus lradius
    lradius lwrist
    lwrist lhand lthumb
    lhand lfingers
    rclavicle rhumerus
    rhumerus rradius
    rradius rwrist
    rwrist rhand rthumb
    rhand rfingers
  end

#!OML:ASF F:\VICON\USERDATA\INSTALL\rory3\rory3.ASF
:FULLY-SPECIFIED
:DEGREES
1044
root 0.758099 16.8064 -0.540809 1.94497 -28.6009 -5.35849
lowerback -0.841595 -2.89516 -2.51918
upperback -6.85896 -3.82237 3.88673
thorax -6.24766 -1.6649 5.65406
lowerneck -6.65008 -11.0782 -16.9433
upperneck 24.378 -19.673 21.0308
head 13.2668 -8.85349 7.95132
rclavicle 7.20594e-014 0
rhumerus -13.1226 9.94899 -98.6672
rradius 119.815
rwrist 32.8901
rhand 40.9489 7.20674
rfingers 7.12502
rthumb 63.1769 -2.74026
lclavicle 7.20594e-014 0
lhumerus -10.2278 -13.898 100.944
lradius 113.822
lwrist -17.3396
lhand 33.3368 42.8721
lfingers 7.12502
lthumb 56.6793 59.7222
rfemur -15.9426 17.8479 21.2338
rtibia 31.6316
rfoot -19.4609 5.20993
rtoes -17.9291
lfemur -10.8104 8.1956 -16.3228
ltibia 39.4651
lfoot -27.6614 15.1807
ltoes -11.3298
1045
root 0.76249 16.8193 -0.524863 1.83329 -29.6631 -5.25521
lowerback -0.935993 -2.94496 -2.36366
upperback -6.8837 -3.89299 3.72416
thorax -6.23064 -1.71477 5.39126
lowerneck -6.52523 -11.1438 -17.1233
upperneck 24.3763 -19.7916 21.0369
head 13.2928 -8.93918 7.96404
rclavicle -2.11706e-014 9.54166e-015
rhumerus -12.8902 10.0403 -98.5604
rradius 119.934
rwrist 33.0018
rhand 40.6434 7.13888
rfingers 7.12502
rthumb 62.9264 -3.15171
lclavicle -2.11706e-014 9.54166e-015
lhumerus -11.9362 -13.3843 101.495
lradius 113.275
lwrist -17.5543
lhand 32.9498 42.6663
lfingers 7.12502
lthumb 56.3376 59.7911
rfemur -15.7345 18.65 21.1141
rtibia 31.2616
rfoot -19.2862 5.3348
rtoes -18.1851
lfemur -10.2132 8.72692 -16.5082
ltibia 38.947
lfoot -27.8234 15.5292
ltoes -11.2035
1046
root 0.767659 16.8318 -0.508994 1.82557 -30.8078 -5.27572
lowerback -1.10518 -2.88263 -2.03649
upperback -6.85886 -3.80963 3.52558
thorax -6.14634 -1.70088 4.9823
lowerneck -6.41085 -11.2431 -17.3646
upperneck 24.2274 -19.9489 21.162
head 13.2964 -9.03879 8.02008
rclavicle -6.43068e-014 -3.97569e-016
rhumerus -12.5278 10.0052 -98.4117
rradius 120.142
rwrist 33.107
rhand 40.2754 6.9956
rfingers 7.12502
rthumb 62.6231 -3.70022
lclavicle -6.43068e-014 -3.97569e-016
lhumerus -13.4076 -13.045 101.959
lradius 112.881
lwrist -17.8255
lhand 33.5327 42.5087
lfingers 7.12502
lthumb 56.8519 59.2174
rfemur -15.6117 19.4665 21.0974
rtibia 30.9204
rfoot -19.0644 5.63304
rtoes -17.9893
lfemur -9.66108 9.37453 -16.5681
ltibia 38.4496
lfoot -27.9661 15.8236
ltoes -10.9282
1047
root 0.771352 16.8452 -0.499938 1.93424 -32.0025 -5.46554
lowerback -1.2307 -2.82002 -1.61179
upperback -6.81091 -3.72297 3.37362
thorax -6.06455 -1.68903 4.57068
lowerneck -6.42349 -11.2998 -17.3927
upperneck 24.0077 -19.9747 21.1317
head 13.212 -9.06156 7.98814
rclavicle 4.47266e-014 3.97569e-016
rhumerus -12.0584 10.021 -98.1926
rradius 120.297
rwrist 33.047
rhand 40.083 6.89775
rfingers 7.12502
rthumb 62.464 -4.00617
lclavicle 4.47266e-014 3.97569e-016
lhumerus -14.599 -12.737 102.257
lradius 112.51
lwrist -17.7041
lhand 34.4799 42.2101
lfingers 7.12502
lthumb 57.6832 58.2124
rfemur -15.5734 20.3423 21.2391
rtibia 30.6305
rfoot -18.8117 5.98626
rtoes -17.2911
lfemur -9.16351 10.1229 -16.4506
ltibia 37.9782
lfoot -27.9052 16.1903
ltoes -11.2483
1048
root 0.775512 16.8572 -0.494153 1.94559 -33.152 -5.29653
lowerback -1.36183 -2.81413 -1.53398
upperback -6.83459 -3.7241 3.16421
thorax -6.0315 -1.70156 4.30012
lowerneck -6.46721 -11.3042 -17.2259
upperneck 23.8173 -19.864 20.8536
head 13.0482 -9.02061 7.84592
rclavicle 4.17448e-014 4.37326e-015
rhumerus -11.6635 10.1299 -97.8308
rradius 120.494
rwrist 32.8001
rhand 40.246 6.86214
rfingers 7.12502
rthumb 62.5988 -3.8657
lclavicle 4.17448e-014 4.37326e-015
lhumerus -15.6839 -12.1533 102.457
lradius 112.108
lwrist -17.5184
lhand 35.1588 42.1047
lfingers 7.12502
lthumb 58.2755 57.5763
rfemur -15.7118 21.1314 20.9989
rtibia 30.4697
rfoot -18.6339 6.32141
rtoes -16.5433
lfemur -8.80001 10.7877 -16.6988
ltibia 37.506
lfoot -27.8829 16.5175
ltoes -11.2293
1049
root 0.7826 16.8665 -0.489055 1.93519 -34.3103 -5.03523
lowerback -1.5105 -2.78304 -1.46209
upperback -6.88116 -3.69253 2.93908
thorax -6.01622 -1.69749 4.01615
lowerneck -6.45321 -11.2685 -17.348
upperneck 23.628 -19.7294 20.7959
head 12.9383 -8.98349 7.85813
rclavicle -1.51076e-014 -1.37161e-014
rhumerus -11.3045 10.2613 -97.417
rradius 120.688
rwrist 32.8033
rhand 39.8153 6.65803
rfingers 7.12502
rthumb 62.2419 -4.53136
lclavicle -1.51076e-014 -1.37161e-014
lhumerus -16.6534 -11.4821 102.637
lradius 111.834
lwrist -17.5523
lhand 35.5547 42.2631
lfingers 7.12502
lthumb 58.6194 57.4155
rfemur -15.987 21.8336 20.6546
rtibia 30.4555
rfoot -18.528 6.73652
rtoes -16.3265
lfemur -8.49587 11.4147 -17.0492
ltibia 37.0744
lfoot -28.1885 16.6219
ltoes -9.99337
